PathFileType	4	(X/Y/Z)	./resultDataOpenSim/trcMotMarkerGrf/sub10/qtm-03-01.trc
DataRate	CameraRate	NumFrames	NumMarkers	Units	OrigDataRate	OrigDataStartFrame	OrigNumFrames
250.000000	250.000000	7	24	m	250.000000	422	482
Frame#	Time	L.Toe.Tip			R.Toe.Tip			L.Ankle.Lat			R.Ankle.Lat			L.Ankle.Med			R.Ankle.Med			L.Heel			R.Heel			L.Knee.Lat			R.Knee.Lat			L.Knee.Med			R.Knee.Med			L.Thigh.Upper			R.Thigh.Upper			L.ASIS			R.ASIS			V.Sacral			L.Acromium			R.Acromium			C7			L.Elbow			R.Elbow			L.Wrist.Lat			R.Wrist.Lat
		X1	Y1	Z1	X2	Y2	Z2	X3	Y3	Z3	X4	Y4	Z4	X5	Y5	Z5	X6	Y6	Z6	X7	Y7	Z7	X8	Y8	Z8	X9	Y9	Z9	X10	Y10	Z10	X11	Y11	Z11	X12	Y12	Z12	X13	Y13	Z13	X14	Y14	Z14	X15	Y15	Z15	X16	Y16	Z16	X17	Y17	Z17	X18	Y18	Z18	X19	Y19	Z19	X20	Y20	Z20	X21	Y21	Z21	X22	Y22	Z22	X23	Y23	Z23	X24	Y24	Z24

422	1.684	1.5391843	0.094128748	-0.22590259	0.80302614	0.03929113	-0.065827596	1.4065859	0.072545965	-0.24722063	0.68184609	0.10176994	-0.0173762	1.4117829	0.096899202	-0.16763812	0.70611568	0.12024224	-0.10317236	1.3593742	0.024111728	-0.19817888	0.62243815	0.098957652	-0.060902974	1.2875824	0.44786793	-0.26683466	0.90810231	0.43129553	0.01022975	1.3124961	0.42964522	-0.14957335	0.93996617	0.42763632	-0.11478448	1.1360193	0.80182722	-0.31165579	0.98515875	0.83841015	0.050347471	1.1718365	0.91089628	-0.22862792	1.0852057	0.92252161	0.010662085	0.91332267	0.91730149	-0.16918854	1.0436185	1.376571	-0.29341987	1.0272764	1.3735826	0.030560441	0.95063719	1.4019864	-0.14025033	0.87894732	1.0845285	-0.3605076	1.0611006	1.0208758	0.12180544	0.91443075	0.84915252	-0.40695085	1.3061765	0.98067372	0.073198956
423	1.688	1.5412728	0.090576633	-0.22635111	0.80348828	0.039304155	-0.065900284	1.408469	0.070950046	-0.24759909	0.68387011	0.10460556	-0.017519025	1.4137221	0.095227155	-0.16771612	0.70875941	0.12248908	-0.10312677	1.3600573	0.023814907	-0.19803996	0.624675	0.10286835	-0.061176232	1.2934348	0.44735779	-0.26742808	0.91389163	0.43123024	0.0099919855	1.3190725	0.42959003	-0.15036752	0.94624813	0.42727973	-0.11488836	1.1428062	0.80208201	-0.31212006	0.99114458	0.83809517	0.04931919	1.1785969	0.91118394	-0.22899893	1.0914898	0.92217908	0.010272731	0.92159204	0.91695628	-0.17049904	1.0495403	1.3765934	-0.29442771	1.0330777	1.3736581	0.029459469	0.95652849	1.401769	-0.14135518	0.88488071	1.0844673	-0.36115666	1.0661935	1.0207644	0.12053589	0.92105082	0.84914767	-0.40806353	1.3113386	0.98046783	0.071536415
424	1.692	1.5436645	0.086818383	-0.22691923	0.80398244	0.039315168	-0.065971	1.4104503	0.069589487	-0.24796873	0.68604693	0.10750668	-0.017820052	1.4158512	0.093757503	-0.16772665	0.71161648	0.12478308	-0.10310686	1.3607949	0.023872737	-0.19776303	0.62712134	0.1069039	-0.061551353	1.2990708	0.44678731	-0.26804772	0.91982209	0.43121717	0.0097786701	1.3253677	0.42939445	-0.15111235	0.95271244	0.42693785	-0.11496797	1.149708	0.80234417	-0.31260279	0.99729796	0.83779041	0.048289937	1.1853823	0.91155232	-0.22939082	1.0979131	0.92185521	0.009849797	0.93355608	0.91589762	-0.17342846	1.0554877	1.3766548	-0.29546064	1.0389079	1.3737864	0.028340732	0.96245	1.401601	-0.14249262	0.89087491	1.0844148	-0.36180218	1.0710975	1.0206858	0.11939435	0.927733	0.84916412	-0.40914768	1.3163878	0.98024123	0.069900854
425	1.696	1.5463963	0.082715314	-0.22748988	0.80451337	0.039312642	-0.06602451	1.4125346	0.068576306	-0.2481798	0.68835874	0.11046396	-0.018216171	1.4183535	0.092603672	-0.16766467	0.71470195	0.12711376	-0.10310274	1.3616673	0.024393856	-0.19739792	0.62980286	0.11105553	-0.062025045	1.3044755	0.44616488	-0.26870771	0.92591374	0.43124709	0.0095813628	1.3313782	0.42905894	-0.15178892	0.95936768	0.42659269	-0.11502958	1.1567145	0.80262631	-0.31313667	1.0036818	0.83750074	0.047269142	1.1921661	0.91200066	-0.22981	1.1044798	0.92155613	0.0093885746	0.94824354	0.91430037	-0.17779416	1.0614522	1.376749	-0.29651832	1.0447704	1.3739653	0.027201541	0.96838041	1.4014865	-0.14365733	0.89693353	1.0843664	-0.36245299	1.0758364	1.0206494	0.11832179	0.93442808	0.84919971	-0.41018919	1.3213197	0.97999345	0.068299374
426	1.7	1.5494024	0.078346069	-0.22794141	0.80508343	0.039290778	-0.066058397	1.414782	0.067923616	-0.2482104	0.69079269	0.11348031	-0.018604905	1.421309	0.091797724	-0.16755245	0.71803418	0.12947211	-0.10310771	1.3627225	0.025331576	-0.19703924	0.63274936	0.11531877	-0.06258748	1.3096539	0.44552985	-0.26941304	0.93219996	0.43130417	0.0093800998	1.3371193	0.42861609	-0.1523797	0.96622348	0.42622702	-0.11507497	1.1638263	0.80294933	-0.3137555	1.0104193	0.83717909	0.046283115	1.198932	0.91252082	-0.23027149	1.1111691	0.92128682	0.0088854874	0.9627798	0.91279173	-0.18251028	1.0674277	1.3768794	-0.29760232	1.0506562	1.3742054	0.026049313	0.97429738	1.4014277	-0.14485	0.90306586	1.0843255	-0.36316846	1.0805079	1.0206852	0.11723673	0.94116334	0.84925388	-0.41121319	1.3261339	0.97971913	0.066741771
427	1.704	1.5525125	0.074017678	-0.22822008	0.80568429	0.039250063	-0.066113716	1.4172334	0.067504621	-0.24816877	0.69339518	0.11658219	-0.018938151	1.424594	0.091255798	-0.16743937	0.72164028	0.13185308	-0.10311866	1.3639727	0.026475997	-0.1967406	0.63598951	0.11969155	-0.063232777	1.3146562	0.4449549	-0.27015001	0.93870793	0.43138352	0.0091630126	1.3426273	0.42813238	-0.1528895	0.97328492	0.42582707	-0.11510396	1.1710496	0.80333746	-0.31448049	1.0176681	0.83670332	0.045375292	1.2056725	0.91310127	-0.23079013	1.1179596	0.92104296	0.0083316715	0.97424305	0.91201988	-0.18638906	1.0734163	1.3770558	-0.29871062	1.0565559	1.3745165	0.024899013	0.98020054	1.4014344	-0.14606701	0.90929895	1.0843022	-0.36404166	1.0851783	1.0207998	0.11610875	0.94799068	0.84933007	-0.41225355	1.3308378	0.97941294	0.065233275
428	1.708	1.5555141	0.070018754	-0.22830703	0.80629802	0.03919211	-0.066252674	1.4197975	0.06712121	-0.24817342	0.69626471	0.11981055	-0.019232991	1.4279146	0.09083503	-0.16737638	0.72555385	0.13424886	-0.10313468	1.3654138	0.02758204	-0.19645561	0.63955175	0.12416307	-0.063973791	1.3195853	0.44452612	-0.27089485	0.94545258	0.43149011	0.008934418	1.3479601	0.42768914	-0.15335789	0.98055318	0.42537913	-0.11511334	1.1783843	0.80381931	-0.31531547	1.0254921	0.8359677	0.044574988	1.2123839	0.91373464	-0.23137584	1.1248421	0.92081614	0.0077142048	0.98207823	0.91206066	-0.18913171	1.0794232	1.377289	-0.29983588	1.0624715	1.3748977	0.023765129	0.98610743	1.40152	-0.14729313	0.91565402	1.0843032	-0.36513527	1.0898476	1.0209737	0.11495642	0.95493908	0.84942828	-0.41332558	1.3354407	0.97907621	0.063774501
